<svg width="60" height="50" viewBox="0 0 60 50" fill="none" xmlns="http://www.w3.org/2000/svg">
  <path d="M30 8 Q18 5 8 18 Q3 30 18 38 Q28 42 30 30" stroke="#c9b896" stroke-width="1.2" fill="none" stroke-linecap="round"/>
  <path d="M30 8 Q42 5 52 18 Q57 30 42 38 Q32 42 30 30" stroke="#c9b896" stroke-width="1.2" fill="none" stroke-linecap="round"/>
  <path d="M30 30 Q20 38 14 48 Q12 50 18 50 Q28 48 30 42" stroke="#c9b896" stroke-width="1.2" fill="none" stroke-linecap="round"/>
  <path d="M30 30 Q40 38 46 48 Q48 50 42 50 Q32 48 30 42" stroke="#c9b896" stroke-width="1.2" fill="none" stroke-linecap="round"/>
  <line x1="30" y1="8" x2="30" y2="42" stroke="#c9b896" stroke-width="1" opacity="0.5"/>
</svg>
